<?xml version="1.0" encoding="utf-8"?>
<!-- Generator: Adobe Illustrator 22.1.0, SVG Export Plug-In . SVG Version: 6.00 Build 0)  -->
<svg version="1.1" id="Layer_1" xmlns="http://www.w3.org/2000/svg" xmlns:xlink="http://www.w3.org/1999/xlink" x="0px" y="0px"
	 viewBox="0 0 660 222" style="enable-background:new 0 0 660 222;" xml:space="preserve">
<style type="text/css">
	.st0{fill:#231F20;}
	.st1{fill:#28B2E6;}
	.st2{fill:#ffffff; stroke: #ffffff; stroke-width: 10;}
</style>
<g>
	<g>
		<path class="st0" d="M320.6,76.7v77.2c0,6.3-0.7,36.8-38.4,36.8h-9v-14.3h8.3c22.5,0,23.8-14.8,23.8-23.3V76.7H320.6z"/>
		<path class="st0" d="M375,110.9c-22.6,0-40.7,18.1-40.7,40.7s18.1,40.7,40.7,40.7s40.7-18.1,40.7-40.7S397.6,110.9,375,110.9z
			 M375,178.6c-15.3,0-26-11.1-26-27c0-16,10.7-27,26-27c15.5,0,26,11.2,26,27C401,167.4,390.4,178.6,375,178.6z"/>
		<path class="st0" d="M440.7,144.4c0,8.6,0.3,26.2,16.4,32.4c3.1,1.1,6.3,1.8,9.8,1.8c15.5,0,26.5-11.4,26.5-27.2
			c0-15.3-9.9-26.9-26.2-26.9c-8.8,0-16.3,4.1-20.7,6.8v-15c7.2-3.6,13.7-5.5,20.8-5.5c6.7,0,13.5,1.1,19.5,4.2
			c12.9,6.5,21.2,20,21.2,35.6c0,20.3-14.2,41.5-41.2,41.5c-12.2,0-21-4.6-26.9-9.8c-14.2-12.7-13.7-29.3-13.7-42V76.7h14.3V144.4z"
			/>
		<path class="st0" d="M557.3,110.9c-22.6,0-40.7,18.1-40.7,40.7s18.1,40.7,40.7,40.7c22.6,0,40.7-18.1,40.7-40.7
			S579.9,110.9,557.3,110.9z M557.3,178.6c-15.3,0-26-11.1-26-27c0-16,10.7-27,26-27c15.5,0,26,11.2,26,27
			C583.3,167.4,572.7,178.6,557.3,178.6z"/>
		<path class="st0" d="M651,126.2h-28v37.1c0,8.3-1.1,13.7,13,13.7h15v13.7h-17.6c-6.3,0-24.7-0.3-24.7-26.2V76.7H623v35.8h28V126.2
			z"/>
	</g>
	<path class="st2" d="M223.1,104.5c0-6.2-5-11.2-11.2-11.2H47.6c-6.2,0-11.2,5-11.2,11.2v18.5v33.7v18.5c0,6.2,5,11.2,11.2,11.2h164.3
		c6.2,0,11.2-5,11.2-11.2v-18.5v-33.7V104.5z"/>
	<path class="st1" d="M108.2,139.9c0,10.4-8.5,18.9-18.9,18.9c-10.4,0-18.9-8.5-18.9-18.9c0-10.4,8.5-18.9,18.9-18.9
		C99.7,121,108.2,129.5,108.2,139.9z M170.1,121c-10.4,0-18.9,8.5-18.9,18.9c0,10.4,8.5,18.9,18.9,18.9c10.4,0,18.9-8.5,18.9-18.9
		C189,129.5,180.6,121,170.1,121z M250.5,139.9c0,7.5-4.4,14-10.7,17v18.3c0,15.4-12.5,27.8-27.8,27.8h-62
		c-2.7,6.3-9,10.8-16.3,10.8h-7.7c-7.3,0-13.6-4.4-16.3-10.8h-62c-15.4,0-27.8-12.5-27.8-27.8V157c-6.3-3-10.7-9.5-10.7-17
		c0-7.5,4.4-14,10.7-17v-18.3c0-15.4,12.5-27.8,27.8-27.8h72.2V44.8c-6-3.5-9.7-9.9-9.7-17c0-10.8,8.8-19.7,19.7-19.7
		s19.7,8.8,19.7,19.7c0,7.1-3.7,13.4-9.7,17v31.9h72.2c15.4,0,27.8,12.5,27.8,27.8v18.3C246.1,125.9,250.5,132.4,250.5,139.9z
		 M223.1,104.5c0-6.2-5-11.2-11.2-11.2H47.6c-6.2,0-11.2,5-11.2,11.2v18.5v33.7v18.5c0,6.2,5,11.2,11.2,11.2h164.3
		c6.2,0,11.2-5,11.2-11.2v-18.5v-33.7V104.5z"/>
</g>
</svg>
